<?xml version="1.0" standalone="no"?>
<!DOCTYPE svg PUBLIC "-//W3C//DTD SVG 20010904//EN"
 "http://www.w3.org/TR/2001/REC-SVG-20010904/DTD/svg10.dtd">
<svg version="1.0" xmlns="http://www.w3.org/2000/svg"
 width="310.000000pt" height="310.000000pt" viewBox="0 0 310.000000 310.000000"
 preserveAspectRatio="xMidYMid meet">
<metadata>
Created by potrace 1.11, written by Peter Selinger 2001-2013
</metadata>
<g transform="translate(0.000000,310.000000) scale(0.100000,-0.100000)"
fill="#000000" stroke="none">
<path d="M1647 2904 c-1 -1 -38 -5 -82 -9 -113 -9 -190 -21 -205 -30 -4 -3
-25 -7 -46 -11 -22 -3 -47 -10 -56 -15 -10 -5 -18 -7 -18 -3 0 3 -6 2 -12 -3
-7 -6 -38 -18 -68 -28 -30 -10 -75 -29 -99 -42 -24 -12 -48 -23 -53 -23 -5 0
-14 -5 -21 -10 -7 -6 -52 -37 -102 -70 -113 -74 -162 -116 -273 -233 -34 -37
-62 -71 -62 -76 0 -5 -3 -11 -8 -13 -28 -12 -192 -306 -196 -353 -1 -5 -9 -21
-18 -34 -15 -21 -21 -23 -55 -16 -54 12 -54 12 -98 2 -44 -9 -74 -36 -98 -88
-48 -104 -51 -232 -7 -335 19 -43 87 -117 100 -109 5 3 10 0 12 -6 2 -6 23
-11 46 -12 42 -2 42 -2 43 -42 1 -46 5 -95 14 -145 3 -19 8 -49 10 -67 2 -17
9 -42 16 -55 7 -12 12 -25 11 -28 -7 -20 74 -191 125 -266 68 -101 259 -301
355 -372 31 -23 60 -42 64 -42 4 0 17 -9 28 -19 22 -20 216 -123 216 -115 0 3
12 -2 28 -10 45 -25 186 -61 282 -72 19 -2 55 -7 80 -10 109 -14 268 -10 398
10 134 21 362 111 482 190 l55 36 10 -30 c15 -44 35 -59 88 -66 89 -12 152 19
161 81 6 37 -22 107 -53 135 l-31 27 75 84 c41 46 75 90 75 97 0 6 4 12 9 12
13 0 114 171 160 272 57 122 115 299 126 387 3 23 8 57 11 75 15 80 11 280 -8
370 -11 50 -21 101 -24 114 -11 57 -74 204 -128 300 -87 153 -249 322 -411
428 -56 36 -227 124 -250 128 -5 1 -14 4 -20 8 -14 9 -170 57 -203 63 -15 2
-45 7 -67 11 -22 3 -42 7 -45 9 -8 5 -258 23 -263 19z m193 -596 c8 -3 32 -8
53 -13 20 -4 40 -11 43 -16 3 -5 14 -9 25 -9 10 0 19 -5 19 -11 0 -5 4 -8 9
-5 5 3 14 -1 21 -9 7 -8 16 -15 21 -15 17 0 119 -94 119 -109 0 -6 5 -11 10
-11 6 0 10 -7 10 -15 0 -8 4 -15 9 -15 11 0 92 -175 93 -203 1 -12 5 -27 9
-32 22 -29 33 -384 15 -460 -4 -16 -9 -40 -10 -53 -2 -12 -6 -25 -9 -29 -4 -3
-7 -15 -7 -25 0 -40 -89 -203 -143 -260 -29 -32 -59 -58 -65 -58 -7 0 -12 -4
-12 -10 0 -5 -11 -12 -25 -16 -14 -3 -25 -10 -25 -14 0 -10 -105 -56 -150 -66
-72 -16 -239 -21 -310 -10 -131 22 -305 90 -390 154 -66 50 -160 136 -160 146
0 3 -8 14 -17 25 -44 47 -109 162 -118 211 -2 8 -4 16 -5 18 -2 1 -3 5 -5 10
-1 4 -5 14 -9 22 -3 9 -10 54 -14 100 -9 112 5 237 30 267 6 7 7 13 3 13 -11
0 69 141 101 179 64 75 128 134 184 168 93 58 112 67 225 114 35 14 87 27 145
36 19 3 37 7 39 9 6 5 271 -3 291 -8z"/>
<path d="M1826 2133 c-3 -4 -16 -8 -28 -10 -12 -2 -27 -8 -35 -14 -7 -6 -13
-9 -13 -5 0 3 -17 -1 -37 -10 -21 -9 -43 -17 -50 -18 -7 -1 -16 -5 -19 -9 -4
-4 -14 -7 -21 -7 -8 0 -35 -10 -61 -21 -26 -12 -49 -21 -51 -20 -2 2 -7 -1
-10 -6 -8 -11 -224 -117 -233 -115 -5 1 -8 -2 -8 -8 0 -5 -7 -10 -15 -10 -8 0
-15 -4 -15 -10 0 -5 -5 -10 -11 -10 -17 0 -152 -91 -177 -119 -30 -35 -36 -44
-40 -61 -2 -8 -7 -17 -11 -20 -4 -3 -7 -26 -8 -52 0 -26 -3 -54 -6 -62 -4 -9
-2 -16 3 -16 6 0 9 -3 9 -7 -1 -5 0 -11 1 -15 1 -5 3 -11 4 -15 18 -85 209
-223 536 -387 118 -60 216 -108 217 -108 3 2 27 -7 70 -24 40 -16 132 -11 144
7 5 8 9 10 9 5 0 -22 59 58 64 87 10 54 5 68 -92 248 -60 111 -113 235 -104
243 3 3 1 6 -4 6 -5 0 -10 9 -10 20 0 11 3 20 7 20 7 0 23 50 21 63 -1 4 2 7
7 7 7 0 20 26 25 52 0 4 9 17 19 28 9 11 17 27 17 36 0 8 5 20 10 27 88 105
115 216 64 270 -14 16 -36 32 -47 36 -28 10 -112 13 -121 4z"/>
</g>
</svg>
